#!OML:ASF F:\VICON\USERDATA\INSTALL\rory3\rory3.ASF
:FULLY-SPECIFIED
:DEGREES
1364
root 1.23929 16.8474 3.26458 14.7394 0.212466 -4.0987
lowerback -6.57659 -1.68085 1.10955
upperback -6.48873 -2.26369 1.54273
thorax -3.00046 -1.14648 0.883781
lowerneck -6.10841 -14.9339 -17.6258
upperneck 12.6531 -20.2551 12.1306
head 7.94168 -9.86834 4.44636
rclavicle 9.64106e-015 2.5842e-015
rhumerus -35.0888 10.9273 -86.9448
rradius 29.5805
rwrist 9.95875
rhand -24.4781 -51.5402
rfingers 7.12502
rthumb 2.01561 -81.5104
lclavicle 9.64106e-015 2.5842e-015
lhumerus -45.7972 -3.14569 76.5107
lradius 38.653
lwrist 4.00457
lhand -34.1267 -40.963
lfingers 7.12502
lthumb -7.30186 -11.109
rfemur -30.8725 3.36084 15.8889
rtibia 46.7621
rfoot -14.1339 -13.4685
rtoes -28.9134
lfemur -29.6604 3.78341 -7.47191
ltibia 47.8198
lfoot -18.3058 5.75939
ltoes -31.3452
1365
root 1.24515 17.1382 3.35839 14.9267 0.109969 -4.05826
lowerback -7.694 -1.59123 1.24529
upperback -6.66954 -2.17002 1.48908
thorax -2.57962 -1.1057 0.724902
lowerneck -5.97177 -14.8422 -17.6818
upperneck 12.9211 -20.1733 12.0994
head 7.9967 -9.83994 4.46362
rclavicle 4.39811e-015 1.98785e-016
rhumerus -36.1834 10.6122 -87.1249
rradius 28.7294
rwrist 10.4682
rhand -24.4514 -51.3001
rfingers 7.12502
rthumb 2.04145 -81.2701
lclavicle 4.39811e-015 1.98785e-016
lhumerus -46.4192 -3.66674 77.0422
lradius 38.8614
lwrist 2.50669
lhand -34.6188 -42.4657
lfingers 7.12502
lthumb -7.77689 -12.6287
rfemur -29.1912 3.87184 15.6485
rtibia 43.6135
rfoot -10.8803 -11.9561
rtoes -32.5141
lfemur -28.031 3.23498 -7.50662
ltibia 44.7768
lfoot -15.1646 4.36377
ltoes -33.8794
1366
root 1.23592 17.4324 3.44018 15.0204 -0.0814839 -4.10569
lowerback -8.4312 -1.55307 1.13295
upperback -6.95143 -2.12197 1.58561
thorax -2.4616 -1.0757 0.873602
lowerneck -6.0623 -14.8014 -17.6941
upperneck 13.6312 -20.1017 11.6672
head 8.18912 -9.82869 4.32066
rclavicle -1.53561e-014 3.97569e-016
rhumerus -37.3815 10.5535 -87.3781
rradius 27.8801
rwrist 10.5583
rhand -24.1968 -51.6425
rfingers 7.12502
rthumb 2.28729 -81.61
lclavicle -1.53561e-014 3.97569e-016
lhumerus -47.319 -4.0693 77.6202
lradius 39.0625
lwrist 1.35346
lhand -34.9034 -43.928
lfingers 7.12502
lthumb -8.05154 -14.1014
rfemur -27.537 4.89486 15.534
rtibia 40.3156
rfoot -6.18245 -10.3715
rtoes -35.2162
lfemur -26.4323 2.79249 -7.37367
ltibia 41.6628
lfoot -10.8861 2.46033
ltoes -32.9878
1367
root 1.2536 17.7401 3.50235 15.0695 0.342318 -3.87708
lowerback -8.80853 -1.69285 1.32104
upperback -7.18639 -2.323 1.49867
thorax -2.51141 -1.1863 0.659979
lowerneck -6.47843 -14.8282 -17.5228
upperneck 14.3141 -20.0776 11.2026
head 8.41464 -9.82037 4.11116
rclavicle -1.80646e-014 1.05356e-014
rhumerus -38.1537 10.2944 -87.6134
rradius 26.7802
rwrist 10.5732
rhand -24.6342 -51.2045
rfingers 7.12502
rthumb 1.86485 -81.1761
lclavicle -1.80646e-014 1.05356e-014
lhumerus -47.9739 -4.40756 78.0917
lradius 39.0868
lwrist 0.856606
lhand -35.3983 -45.3258
lfingers 7.12502
lthumb -8.52919 -15.5181
rfemur -25.7519 4.73058 15.2118
rtibia 36.9283
rfoot -1.79473 -8.25625
rtoes -36.0466
lfemur -25.1331 1.77396 -7.51797
ltibia 38.5711
lfoot -5.82917 0.560535
ltoes -31.3944
1368
root 1.22745 18.0379 3.56879 15.034 -0.0144496 -4.18647
lowerback -9.3228 -1.55396 1.30576
upperback -7.19001 -2.14748 1.59572
thorax -2.22965 -1.09471 0.764122
lowerneck -6.88187 -14.8563 -17.311
upperneck 14.6572 -20.0725 10.9851
head 8.55173 -9.80414 3.97917
rclavicle 1.10822e-014 -1.0138e-014
rhumerus -38.7361 9.71741 -87.7549
rradius 25.8398
rwrist 10.6242
rhand -24.9902 -50.8312
rfingers 7.12502
rthumb 1.52103 -80.8055
lclavicle 1.10822e-014 -1.0138e-014
lhumerus -48.1739 -4.66677 78.385
lradius 38.8038
lwrist 0.634813
lhand -36.1336 -46.261
lfingers 7.12502
lthumb -9.23874 -16.4834
rfemur -24.3153 6.08826 15.4253
rtibia 33.6903
rfoot 2.80289 -7.34966
rtoes -34.8637
lfemur -23.7266 1.56039 -7.03901
ltibia 35.5463
lfoot -0.0671881 -0.648634
ltoes -29.5716
1369
root 1.2486 18.3487 3.62667 15.2111 0.0765082 -3.98995
lowerback -9.94982 -1.54627 1.53605
upperback -7.29829 -2.16619 1.4421
thorax -2.01628 -1.11571 0.458664
lowerneck -7.18247 -14.8631 -17.1682
upperneck 15.0678 -20.0611 10.8002
head 8.70478 -9.79065 3.87383
rclavicle -1.35671e-014 -1.09332e-014
rhumerus -39.5609 9.24401 -87.8916
rradius 25.4784
rwrist 10.3706
rhand -24.425 -51.2826
rfingers 7.12502
rthumb 2.06691 -81.2523
lclavicle -1.35671e-014 -1.09332e-014
lhumerus -48.4772 -4.77984 78.5817
lradius 38.627
lwrist 0.504262
lhand -36.6623 -46.2685
lfingers 7.12502
lthumb -9.74885 -16.5142
rfemur -23.0203 5.69087 15.1188
rtibia 30.4784
rfoot 7.65947 -5.82795
rtoes -33.7311
lfemur -22.7209 0.7792 -7.24929
ltibia 32.6594
lfoot 5.91601 -0.44729
ltoes -26.3415
1370
root 1.22483 18.6487 3.69265 15.618 -0.59578 -3.57454
lowerback -10.8925 -1.45429 0.757929
upperback -7.48177 -1.999 1.37788
thorax -1.671 -1.00483 0.818191
lowerneck -7.68162 -14.934 -17.0762
upperneck 15.9239 -20.1006 10.3839
head 9.03236 -9.81046 3.66731
rclavicle 5.18083e-015 7.15625e-015
rhumerus -40.4715 8.91296 -88.0303
rradius 25.1911
rwrist 10.048
rhand -23.645 -51.2261
rfingers 7.12502
rthumb 2.82016 -81.1872
lclavicle 5.18083e-015 7.15625e-015
lhumerus -49.0253 -4.77971 78.7252
lradius 38.3665
lwrist 0.275311
lhand -37.1988 -46.6792
lfingers 7.12502
lthumb -10.2664 -16.9498
rfemur -22.4236 6.7091 14.4147
rtibia 27.4948
rfoot 12.932 -5.24903
rtoes -32.389
lfemur -21.9263 0.281195 -7.59272
ltibia 29.9725
lfoot 10.9434 0.595017
ltoes -23.6206
1371
root 1.24779 18.9523 3.7358 15.8426 -0.307612 -3.62633
lowerback -11.4618 -1.46486 1.36032
upperback -7.59555 -2.07261 1.28943
thorax -1.50819 -1.065 0.368875
lowerneck -8.14498 -15.0149 -16.9856
upperneck 16.6233 -20.1234 9.9052
head 9.29361 -9.83099 3.44777
rclavicle -4.50993e-015 7.15625e-015
rhumerus -41.0488 8.50216 -88.0928
rradius 24.5537
rwrist 9.79103
rhand -23.2072 -50.143
rfingers 7.12502
rthumb 3.243 -80.0981
lclavicle -4.50993e-015 7.15625e-015
lhumerus -49.3799 -4.84268 78.8278
lradius 38.203
lwrist 0.981108
lhand -37.0455 -46.9283
lfingers 7.12502
lthumb -10.1186 -17.1916
rfemur -21.4822 6.14176 14.3892
rtibia 24.7936
rfoot 17.1471 -4.50947
rtoes -29.9458
lfemur -21.2646 -0.705069 -7.38312
ltibia 27.5945
lfoot 14.6911 0.895798
ltoes -22.5146
